<svg xmlns="http://www.w3.org/2000/svg" viewBox="0 0 275.52 314"><defs><style>.cls-1{fill:none;}.cls-1,.cls-2{stroke:#fff;stroke-miterlimit:10;stroke-width:11px;}.cls-2{fill:#556246;}</style></defs><g id="Layer_2" data-name="Layer 2"><g id="Layer_1-2" data-name="Layer 1"><path class="cls-1" d="M11.33,60.54c.74-5.73,120.72-54.3,128.16-54.85,28.3-2.07,41.61,12.42,38.28,50.72Z"/><path class="cls-1" d="M258.5,120.5v163a25,25,0,0,1-25,25H5.5V69.06a8.21,8.21,0,0,1,8.21-8.21H233.5a25,25,0,0,1,25,25V120.5"/><polygon class="cls-1" points="235.63 120.63 113.54 241.19 66.08 194.09 188.18 73.53 235.63 120.63"/><path class="cls-2" d="M260.21,96.26l8.48-8.4a4.45,4.45,0,0,0,0-6.34l-41-40.61a4.56,4.56,0,0,0-6.4,0l-8.48,8.4L201.12,60.88l47.41,46.95Z"/><polygon class="cls-1" points="42.5 266.5 99.74 252.23 56.91 209.81 42.5 266.5"/></g></g></svg>